<svg id="Layer_1" data-name="Layer 1" xmlns="http://www.w3.org/2000/svg" viewBox="0 0 662.51 65.71"><defs><style>.cls-1{fill:#231f20;}</style></defs><title>Sandra Rieger Final Files</title><path class="cls-1" d="M31.88,25a9.84,9.84,0,0,0-2.56-1.54,6.9,6.9,0,0,0-2.48-.5,4,4,0,0,0-2.48.72,2.25,2.25,0,0,0-1,1.88,1.88,1.88,0,0,0,.48,1.32,4.07,4.07,0,0,0,1.26.9,11.18,11.18,0,0,0,1.76.66c.65.19,1.3.39,1.94.6a12.06,12.06,0,0,1,5.62,3.42A8.49,8.49,0,0,1,36.24,38a10.84,10.84,0,0,1-.78,4.2,8.76,8.76,0,0,1-2.28,3.22,10.55,10.55,0,0,1-3.68,2.08,15.45,15.45,0,0,1-4.94.74A18.12,18.12,0,0,1,14,44.85l3.36-6.32a13.6,13.6,0,0,0,3.48,2.32,8.29,8.29,0,0,0,3.4.76,4,4,0,0,0,2.86-.88,2.73,2.73,0,0,0,.7-3.18,2.62,2.62,0,0,0-.8-.92,6.56,6.56,0,0,0-1.46-.78c-.6-.24-1.33-.51-2.18-.8-1-.32-2-.67-3-1.06a9.36,9.36,0,0,1-2.6-1.54A7.1,7.1,0,0,1,15.9,30a8.51,8.51,0,0,1-.7-3.7,10.56,10.56,0,0,1,.74-4.06A9,9,0,0,1,18,19.15a9.14,9.14,0,0,1,3.28-2,12.39,12.39,0,0,1,4.34-.72,19.2,19.2,0,0,1,4.68.62A20.73,20.73,0,0,1,35,18.85Z"/><path class="cls-1" d="M66.12,42.17H54.92l-1.8,5.24H44.76L56.24,17.25H64.8L76.28,47.41H67.92Zm-2.08-6-3.52-10L57,36.21Z"/><path class="cls-1" d="M86.76,47.41V17.25H94.6l14.48,18.44V17.25h7.8V47.41h-7.8L94.6,29V47.41Z"/><path class="cls-1" d="M130.24,17.25h11.6a13.64,13.64,0,0,1,5.78,1.24,15.92,15.92,0,0,1,4.72,3.3,15.46,15.46,0,0,1,3.18,4.8,14.8,14.8,0,0,1,0,11.44,15.21,15.21,0,0,1-3.16,4.82,15.62,15.62,0,0,1-4.72,3.32,13.73,13.73,0,0,1-5.82,1.24h-11.6Zm7.84,23.52h1.8a9.68,9.68,0,0,0,3.64-.64,7.9,7.9,0,0,0,2.7-1.76,7.63,7.63,0,0,0,1.68-2.66,9.67,9.67,0,0,0,.58-3.38,9.28,9.28,0,0,0-.6-3.36,7.82,7.82,0,0,0-1.7-2.68,7.9,7.9,0,0,0-2.7-1.76,9.58,9.58,0,0,0-3.6-.64h-1.8Z"/><path class="cls-1" d="M193.8,47.41H184l-7.48-11.6v11.6h-7.84V17.25h12.2a12.07,12.07,0,0,1,4.4.74,8.28,8.28,0,0,1,4.94,5,10.39,10.39,0,0,1,.62,3.6,8.9,8.9,0,0,1-1.66,5.58,8.37,8.37,0,0,1-4.9,2.9ZM176.56,30.73H178a5.74,5.74,0,0,0,3.56-1A3.3,3.3,0,0,0,182.84,27a3.3,3.3,0,0,0-1.24-2.76,5.74,5.74,0,0,0-3.56-1h-1.48Z"/><path class="cls-1" d="M222.6,42.17H211.4l-1.8,5.24h-8.36l11.48-30.16h8.56l11.48,30.16H224.4Zm-2.08-6-3.52-10-3.52,10Z"/><path class="cls-1" d="M289,47.41H279.2l-7.48-11.6v11.6h-7.84V17.25h12.2a12.07,12.07,0,0,1,4.4.74,8.28,8.28,0,0,1,4.94,5,10.39,10.39,0,0,1,.62,3.6,8.9,8.9,0,0,1-1.66,5.58,8.37,8.37,0,0,1-4.9,2.9ZM271.72,30.73h1.48a5.74,5.74,0,0,0,3.56-1A3.3,3.3,0,0,0,278,27a3.3,3.3,0,0,0-1.24-2.76,5.74,5.74,0,0,0-3.56-1h-1.48Z"/><path class="cls-1" d="M312.28,17.25V47.41h-7.84V17.25Z"/><path class="cls-1" d="M348,23.89h-9.32v5h8.8v6.64h-8.8v5.2H348v6.64H330.8V17.25H348Z"/><path class="cls-1" d="M380.48,30.53H396c0,1.6-.07,3-.2,4.36a15.75,15.75,0,0,1-.8,3.64,14.53,14.53,0,0,1-2.28,4.18,13.39,13.39,0,0,1-3.38,3,16.29,16.29,0,0,1-4.26,1.86,18.6,18.6,0,0,1-4.88.64,17.18,17.18,0,0,1-6.42-1.16,14.32,14.32,0,0,1-5-3.26,14.67,14.67,0,0,1-3.24-5,17.44,17.44,0,0,1-1.16-6.5,17.71,17.71,0,0,1,1.14-6.46,14.21,14.21,0,0,1,3.24-5,14.56,14.56,0,0,1,5.06-3.24,18,18,0,0,1,6.6-1.16,16.4,16.4,0,0,1,8.28,2,14.18,14.18,0,0,1,5.64,6.32L387,27.85a7.67,7.67,0,0,0-2.7-3.56,6.79,6.79,0,0,0-3.78-1.08,7.57,7.57,0,0,0-3.2.66,7,7,0,0,0-2.46,1.88,8.84,8.84,0,0,0-1.6,2.94,13,13,0,0,0-.08,7.4,8,8,0,0,0,1.5,2.84,6.68,6.68,0,0,0,2.48,1.86,8.34,8.34,0,0,0,3.44.66,9.74,9.74,0,0,0,2.24-.26,5.83,5.83,0,0,0,1.94-.84,5,5,0,0,0,1.42-1.5,6.16,6.16,0,0,0,.76-2.24h-6.44Z"/><path class="cls-1" d="M430.36,23.89H421v5h8.8v6.64H421v5.2h9.32v6.64H413.2V17.25h17.16Z"/><path class="cls-1" d="M473.28,47.41h-9.76L456,35.81v11.6H448.2V17.25h12.2a12.07,12.07,0,0,1,4.4.74,8.28,8.28,0,0,1,4.94,5,10.39,10.39,0,0,1,.62,3.6,8.9,8.9,0,0,1-1.66,5.58,8.37,8.37,0,0,1-4.9,2.9ZM456,30.73h1.48a5.74,5.74,0,0,0,3.56-1A3.3,3.3,0,0,0,462.32,27a3.3,3.3,0,0,0-1.24-2.76,5.74,5.74,0,0,0-3.56-1H456Z"/><path class="cls-1" d="M525.59,44.61q-4.64,3.49-9,3.49a9.36,9.36,0,0,1-6.49-2.46,7.66,7.66,0,0,1-2.73-5.87q0-5.3,7.2-9.31a12.66,12.66,0,0,1-2.31-6.52,6.51,6.51,0,0,1,2.11-5.16,9.45,9.45,0,0,1,10.77-.34,4.93,4.93,0,0,1,2,4.15q0,4.17-5,6.74l6.33,8.29q2.5-3.54,2.5-5.07c0-1-.67-1.56-2-1.61v-2.5h9.36v2.5a5.34,5.34,0,0,0-2.65,1.25,17.79,17.79,0,0,0-2.4,3.25,44.26,44.26,0,0,1-3,4.43A21.57,21.57,0,0,0,533.05,43a3.22,3.22,0,0,0,2.09.85c1.53,0,2.4-1.07,2.62-3.21h2.54c0,2.54-.77,4.4-2.18,5.6A7.68,7.68,0,0,1,533,48.06,10.08,10.08,0,0,1,525.59,44.61Zm-2-2.06-7.39-9.66a4.21,4.21,0,0,0-2.27,3.65,8.07,8.07,0,0,0,1.88,4.89,5.46,5.46,0,0,0,4.38,2.45A5.07,5.07,0,0,0,523.6,42.55ZM520.36,27q2.8-1.92,2.8-4.11a3.31,3.31,0,0,0-.86-2.41,2.81,2.81,0,0,0-2.1-.89,2.71,2.71,0,0,0-1.67.56,2.11,2.11,0,0,0-.74,1.78Q517.79,23.9,520.36,27Z"/><path class="cls-1" d="M598,27.33A8.37,8.37,0,0,0,591.27,24a8.17,8.17,0,0,0-3.26.64,8,8,0,0,0-2.58,1.74,8.12,8.12,0,0,0-1.7,2.62,8.66,8.66,0,0,0-.62,3.28,8.76,8.76,0,0,0,.62,3.32,8.31,8.31,0,0,0,1.72,2.64A8.21,8.21,0,0,0,588,40a8,8,0,0,0,3.2.64,9.08,9.08,0,0,0,6.76-3.2v9.28l-.8.28a22.73,22.73,0,0,1-3.36.94,16.23,16.23,0,0,1-3.08.3,15.74,15.74,0,0,1-11-4.5,16.61,16.61,0,0,1-3.5-5.08,16.29,16.29,0,0,1,0-12.8,15.73,15.73,0,0,1,8.54-8.28,15.74,15.74,0,0,1,6-1.18,16.76,16.76,0,0,1,3.54.38A21.47,21.47,0,0,1,598,18Z"/><path class="cls-1" d="M603.27,37a10,10,0,0,1,.92-4.26,10.57,10.57,0,0,1,2.56-3.44,12.38,12.38,0,0,1,3.9-2.3,15,15,0,0,1,9.84,0,12.14,12.14,0,0,1,3.92,2.28A10.08,10.08,0,0,1,627,32.71a10.53,10.53,0,0,1,.92,4.46,10.41,10.41,0,0,1-3.52,7.94,11.46,11.46,0,0,1-3.94,2.26,15.12,15.12,0,0,1-5,.8,14.52,14.52,0,0,1-4.88-.8,11.19,11.19,0,0,1-3.86-2.28,10.74,10.74,0,0,1-2.54-3.54A11.15,11.15,0,0,1,603.27,37Zm7.64.08a4.71,4.71,0,0,0,.38,1.9,5.39,5.39,0,0,0,1,1.5,4.45,4.45,0,0,0,1.48,1,4.78,4.78,0,0,0,3.64,0,4.26,4.26,0,0,0,1.48-1,5,5,0,0,0,1-1.5,4.42,4.42,0,0,0,.38-1.86,4.34,4.34,0,0,0-.38-1.82,5,5,0,0,0-1-1.5,4.26,4.26,0,0,0-1.48-1,4.78,4.78,0,0,0-3.64,0,4.45,4.45,0,0,0-1.48,1,5.43,5.43,0,0,0-1,1.48A4.37,4.37,0,0,0,610.91,37.05Z"/><path class="cls-1" d="M631.91,43.57a4.65,4.65,0,0,1,.36-1.82,4.81,4.81,0,0,1,1-1.5,4.64,4.64,0,0,1,1.5-1,4.78,4.78,0,0,1,3.64,0,4.43,4.43,0,0,1,1.5,1,4.72,4.72,0,0,1,0,6.64,4.43,4.43,0,0,1-1.5,1,4.72,4.72,0,0,1-5.14-1,4.81,4.81,0,0,1-1-1.5A4.65,4.65,0,0,1,631.91,43.57Z"/></svg>